<?xml version="1.0" encoding="utf-8"?>
<svg width="500" height="500" viewBox="0 0 500 500" fill="none" xmlns="http://www.w3.org/2000/svg">
  <g>
    <g>
      <path d="M0 250C0 111.929 111.929 0 250 0C388.071 0 500 111.929 500 250C500 388.071 388.071 500 250 500C111.929 500 0 388.071 0 250Z" fill="#FFFFFF" fill-rule="evenodd" />
    </g>
    <path d="M0 101C0 45.2192 47.6817 0 106.5 0C165.318 0 213 45.2192 213 101C213 156.781 165.318 202 106.5 202C47.6817 202 0 156.781 0 101Z" fill="#BDBDBD" fill-rule="evenodd" transform="translate(144 68)" />
    <path d="M1.90271 143C-6.26868 125.006 5.08426 0 174.903 0C344.722 0 354.189 131.92 347.903 143C341.618 154.08 270.448 214 174.903 214C79.3574 214 10.0741 160.995 1.90271 143Z" fill="#BDBDBD" fill-rule="evenodd" transform="translate(75.097 286)" />
  </g>
</svg>